<svg width="19" height="20" viewBox="0 0 19 20" fill="none" xmlns="http://www.w3.org/2000/svg">
<path d="M9.5 0.0493164C7.62108 0.0493164 5.78435 0.606481 4.22209 1.65035C2.65982 2.69423 1.44218 4.17792 0.723149 5.91382C0.00411624 7.64972 -0.184015 9.55985 0.182544 11.4027C0.549104 13.2455 1.45389 14.9382 2.78249 16.2668C4.11109 17.5954 5.80383 18.5002 7.64665 18.8668C9.48946 19.2333 11.3996 19.0452 13.1355 18.3262C14.8714 17.6071 16.3551 16.3895 17.399 14.8272C18.4428 13.265 19 11.4282 19 9.54931C19 7.02976 17.9991 4.6134 16.2175 2.8318C14.4359 1.05021 12.0196 0.0493164 9.5 0.0493164ZM14.8097 7.73402L8.82471 13.719C8.67625 13.8674 8.47492 13.9508 8.265 13.9508C8.05508 13.9508 7.85375 13.8674 7.70529 13.719L4.97167 10.9854C4.82746 10.8361 4.74767 10.6361 4.74947 10.4285C4.75127 10.221 4.83453 10.0224 4.98131 9.87562C5.12809 9.72884 5.32665 9.64558 5.53423 9.64378C5.7418 9.64198 5.94178 9.72177 6.09109 9.86598L8.265 12.0399L13.6903 6.61461C13.7633 6.53899 13.8507 6.47868 13.9473 6.43719C14.0439 6.3957 14.1477 6.37386 14.2529 6.37295C14.358 6.37204 14.4622 6.39207 14.5595 6.43187C14.6568 6.47168 14.7452 6.53046 14.8195 6.60479C14.8939 6.67913 14.9526 6.76752 14.9924 6.86481C15.0322 6.9621 15.0523 7.06635 15.0514 7.17147C15.0505 7.27658 15.0286 7.38046 14.9871 7.47705C14.9456 7.57364 14.8853 7.66099 14.8097 7.73402Z" fill="#44474D"/>
</svg>
