<svg width="20" height="20" viewBox="0 0 20 20" fill="none" xmlns="http://www.w3.org/2000/svg">
<path d="M10 0.399902C8.10133 0.399902 6.24527 0.962932 4.66655 2.01779C3.08784 3.07266 1.85739 4.57197 1.13079 6.32614C0.404184 8.08031 0.214072 10.0106 0.58449 11.8728C0.954908 13.735 1.86922 15.4455 3.2118 16.7881C4.55439 18.1307 6.26494 19.045 8.12716 19.4154C9.98938 19.7859 11.9196 19.5957 13.6738 18.8691C15.428 18.1425 16.9273 16.9121 17.9821 15.3334C19.037 13.7547 19.6 11.8986 19.6 9.9999C19.6 7.45382 18.5886 5.01203 16.7883 3.21168C14.9879 1.41133 12.5461 0.399902 10 0.399902ZM15.3656 8.1655L9.31763 14.2135C9.16761 14.3635 8.96416 14.4477 8.75203 14.4477C8.5399 14.4477 8.33645 14.3635 8.18643 14.2135L5.42403 11.4511C5.2783 11.3002 5.19767 11.0981 5.19949 10.8884C5.20131 10.6786 5.28545 10.478 5.43377 10.3296C5.5821 10.1813 5.78275 10.0972 5.99251 10.0954C6.20227 10.0935 6.40435 10.1742 6.55523 10.3199L8.75203 12.5167L14.2344 7.0343C14.3082 6.95789 14.3965 6.89695 14.4941 6.85502C14.5917 6.81309 14.6967 6.79102 14.8029 6.7901C14.9091 6.78918 15.0145 6.80942 15.1128 6.84964C15.2111 6.88987 15.3004 6.94927 15.3755 7.02439C15.4507 7.0995 15.5101 7.18882 15.5503 7.28714C15.5905 7.38546 15.6108 7.4908 15.6098 7.59702C15.6089 7.70325 15.5868 7.80822 15.5449 7.90583C15.503 8.00343 15.442 8.0917 15.3656 8.1655Z" fill="#C10E24"/>
</svg>
