<svg width="174" height="24" viewBox="0 0 174 24" fill="none" xmlns="http://www.w3.org/2000/svg">
<path d="M5.54688 22.1719C5.54688 22.4844 5.47917 22.7031 5.34375 22.8281C5.21875 22.9427 5 23 4.6875 23H1.35938C1.04688 23 0.822917 22.9427 0.6875 22.8281C0.5625 22.7031 0.5 22.4844 0.5 22.1719V3.09375C0.5 2.79167 0.552083 2.5625 0.65625 2.40625C1.125 1.71875 1.78125 0.994792 2.625 0.234375C2.78125 0.109375 2.91667 0.046875 3.03125 0.046875C3.15625 0.046875 3.28646 0.109375 3.42188 0.234375C3.88021 0.630208 4.26562 1.01042 4.57812 1.375C4.89062 1.72917 5.16146 2.07292 5.39062 2.40625C5.49479 2.57292 5.54688 2.80208 5.54688 3.09375V9.57812H5.90625C7.20833 9.57812 8.26562 9.40104 9.07812 9.04688C9.89062 8.68229 10.5156 8.19792 10.9531 7.59375C11.3906 6.97917 11.6875 6.29688 11.8438 5.54688C12.0104 4.79688 12.0938 4.03125 12.0938 3.25V3.09375C12.0938 2.79167 12.1458 2.5625 12.25 2.40625C12.7188 1.71875 13.375 0.994792 14.2188 0.234375C14.375 0.109375 14.5104 0.046875 14.625 0.046875C14.75 0.046875 14.8802 0.109375 15.0156 0.234375C15.474 0.630208 15.8594 1.01042 16.1719 1.375C16.4844 1.72917 16.7552 2.07292 16.9844 2.40625C17.0885 2.57292 17.1406 2.80208 17.1406 3.09375V3.25C17.1406 4.09375 17.0573 4.96875 16.8906 5.875C16.724 6.77083 16.4271 7.61979 16 8.42188C15.5833 9.22396 14.9896 9.91146 14.2188 10.4844C13.4583 11.0469 12.474 11.4167 11.2656 11.5938V11.7031C12.349 12.0469 13.3125 12.6198 14.1562 13.4219C15.0104 14.2135 15.7448 15.1198 16.3594 16.1406C16.9844 17.1615 17.4948 18.1875 17.8906 19.2188C18.2865 20.25 18.5677 21.1719 18.7344 21.9844C18.8177 22.3698 18.8177 22.6354 18.7344 22.7812C18.651 22.9271 18.4531 23 18.1406 23H14.3125C13.7812 23 13.4688 22.7552 13.375 22.2656C13.2188 21.474 12.9115 20.5833 12.4531 19.5938C12.0052 18.5938 11.4427 17.6302 10.7656 16.7031C10.0885 15.776 9.33333 15.0104 8.5 14.4062C7.67708 13.8021 6.8125 13.5 5.90625 13.5H5.54688V22.1719ZM34.2188 1.82812C34.7917 2.63021 35.375 3.66667 35.9688 4.9375C36.5729 6.19792 37.1562 7.58333 37.7188 9.09375C38.2812 10.6042 38.7865 12.151 39.2344 13.7344C39.6927 15.3073 40.0677 16.8229 40.3594 18.2812C40.651 19.7396 40.8177 21.0365 40.8594 22.1719C40.8698 22.724 40.6198 23 40.1094 23H36.3281C35.8385 23 35.5833 22.7552 35.5625 22.2656C35.5208 21.099 35.3333 19.6823 35 18.0156H26.4688C26.1771 19.6406 26.0104 21.0573 25.9688 22.2656C25.9479 22.7552 25.6823 23 25.1719 23H21.4688C21.2812 23 21.125 22.9479 21 22.8438C20.875 22.7292 20.8177 22.5365 20.8281 22.2656C20.8802 21.1094 21.0469 19.7969 21.3281 18.3281C21.6198 16.849 21.9948 15.3177 22.4531 13.7344C22.9115 12.151 23.4219 10.6042 23.9844 9.09375C24.5469 7.57292 25.1302 6.18229 25.7344 4.92188C26.3385 3.66146 26.9271 2.63021 27.5 1.82812C27.8021 1.40104 28.1198 1.08854 28.4531 0.890625C28.7969 0.692708 29.2188 0.59375 29.7188 0.59375H31.9688C32.4792 0.59375 32.9062 0.692708 33.25 0.890625C33.5938 1.08854 33.9167 1.40104 34.2188 1.82812ZM30.6875 5.53125C30 6.625 29.3698 7.93229 28.7969 9.45312C28.224 10.974 27.7292 12.5365 27.3125 14.1406H34.0938C33.6562 12.5365 33.151 10.974 32.5781 9.45312C32.0052 7.93229 31.4062 6.625 30.7812 5.53125H30.6875ZM53.625 19.1719C54.3854 19.1719 54.9792 19.0938 55.4062 18.9375C55.8438 18.7812 56.1823 18.5885 56.4219 18.3594C56.6615 18.1302 56.8698 17.901 57.0469 17.6719C57.2135 17.4635 57.349 17.3073 57.4531 17.2031C57.5677 17.099 57.724 17.026 57.9219 16.9844C58.0885 16.9323 58.3542 16.901 58.7188 16.8906C59.0938 16.8698 59.4635 16.8594 59.8281 16.8594C60.2031 16.8594 60.4635 16.8698 60.6094 16.8906C60.8281 16.901 60.9792 16.9427 61.0625 17.0156C61.1458 17.0885 61.1979 17.2448 61.2188 17.4844C61.25 17.8177 61.2656 18.2135 61.2656 18.6719C61.276 19.1302 61.2708 19.526 61.25 19.8594C61.2396 19.9635 61.2188 20.0521 61.1875 20.125C61.1667 20.1979 61.1146 20.3073 61.0312 20.4531C60.9271 20.6198 60.724 20.8646 60.4219 21.1875C60.1198 21.5 59.6771 21.8281 59.0938 22.1719C58.5104 22.5052 57.7552 22.7917 56.8281 23.0312C55.9115 23.2708 54.7812 23.3906 53.4375 23.3906C52 23.3906 50.6562 23.2083 49.4062 22.8438C48.1562 22.4688 47.0573 21.8438 46.1094 20.9688C45.1719 20.0938 44.4375 18.9115 43.9062 17.4219C43.3854 15.9323 43.125 14.0729 43.125 11.8438C43.125 9.36458 43.5521 7.26042 44.4062 5.53125C45.2708 3.79167 46.4948 2.46875 48.0781 1.5625C49.6615 0.65625 51.5365 0.203125 53.7031 0.203125C55.224 0.203125 56.4427 0.359375 57.3594 0.671875C58.2865 0.984375 58.9896 1.35417 59.4688 1.78125C59.9479 2.19792 60.2865 2.5625 60.4844 2.875C60.5573 2.98958 60.6094 3.09375 60.6406 3.1875C60.6719 3.27083 60.6927 3.40625 60.7031 3.59375C60.7344 3.84375 60.7396 4.20833 60.7188 4.6875C60.7083 5.16667 60.6719 5.58854 60.6094 5.95312C60.5677 6.18229 60.5 6.33333 60.4062 6.40625C60.3646 6.44792 60.2917 6.48438 60.1875 6.51562C60.0833 6.54688 59.9271 6.5625 59.7188 6.5625C59.3854 6.5625 59.0104 6.55208 58.5938 6.53125C58.1771 6.5 57.8646 6.46875 57.6562 6.4375C57.4062 6.39583 57.224 6.33854 57.1094 6.26562C56.9948 6.18229 56.8802 6.05729 56.7656 5.89062C56.5781 5.61979 56.2552 5.30729 55.7969 4.95312C55.3385 4.59896 54.5833 4.42188 53.5312 4.42188C52.0521 4.42188 50.8333 4.99479 49.875 6.14062C48.9167 7.27604 48.4375 9.11979 48.4375 11.6719C48.4375 14.2135 48.9375 16.099 49.9375 17.3281C50.9479 18.5573 52.1771 19.1719 53.625 19.1719ZM79.0469 3.09375C79.0469 2.79167 79.099 2.5625 79.2031 2.40625C79.6719 1.71875 80.3281 0.994792 81.1719 0.234375C81.3281 0.109375 81.4635 0.046875 81.5781 0.046875C81.7031 0.046875 81.8333 0.109375 81.9688 0.234375C82.4271 0.630208 82.8125 1.01042 83.125 1.375C83.4375 1.72917 83.7083 2.07292 83.9375 2.40625C84.0417 2.57292 84.0938 2.80208 84.0938 3.09375V22.1719C84.0938 22.4844 84.026 22.7031 83.8906 22.8281C83.7656 22.9427 83.5469 23 83.2344 23H79.9062C79.5938 23 79.3698 22.9427 79.2344 22.8281C79.1094 22.7031 79.0469 22.4844 79.0469 22.1719V13.875H69.7656V22.1719C69.7656 22.4844 69.6979 22.7031 69.5625 22.8281C69.4375 22.9427 69.2188 23 68.9062 23H65.5781C65.2656 23 65.0417 22.9427 64.9062 22.8281C64.7812 22.7031 64.7188 22.4844 64.7188 22.1719V1.42188C64.7188 1.10938 64.7812 0.895833 64.9062 0.78125C65.0417 0.65625 65.2656 0.59375 65.5781 0.59375H68.9062C69.2188 0.59375 69.4375 0.65625 69.5625 0.78125C69.6979 0.895833 69.7656 1.10938 69.7656 1.42188V9.53125H79.0469V3.09375ZM94.1406 22.1719C94.1406 22.4844 94.0729 22.7031 93.9375 22.8281C93.8125 22.9427 93.5938 23 93.2812 23H89.9531C89.6406 23 89.4167 22.9427 89.2812 22.8281C89.1562 22.7031 89.0938 22.4844 89.0938 22.1719V3.09375C89.0938 2.79167 89.1458 2.5625 89.25 2.40625C89.7188 1.71875 90.375 0.994792 91.2188 0.234375C91.375 0.109375 91.5104 0.046875 91.625 0.046875C91.75 0.046875 91.8802 0.109375 92.0156 0.234375C92.474 0.630208 92.8594 1.01042 93.1719 1.375C93.4844 1.72917 93.7552 2.07292 93.9844 2.40625C94.0885 2.57292 94.1406 2.80208 94.1406 3.09375V22.1719ZM104.328 21.7656C103.495 20.4531 102.677 18.9844 101.875 17.3594C101.083 15.724 100.365 14.0469 99.7188 12.3281C99.0729 10.599 98.5573 8.9375 98.1719 7.34375C97.7865 5.73958 97.5938 4.30729 97.5938 3.04688C97.5938 2.77604 97.651 2.5625 97.7656 2.40625C98.0052 2.07292 98.2969 1.72917 98.6406 1.375C98.9948 1.01042 99.4115 0.630208 99.8906 0.234375C100.047 0.109375 100.193 0.046875 100.328 0.046875C100.464 0.046875 100.599 0.109375 100.734 0.234375C101.224 0.630208 101.641 1.01042 101.984 1.375C102.328 1.72917 102.62 2.07292 102.859 2.40625C102.974 2.5625 103.031 2.79167 103.031 3.09375V3.03125C103.031 3.91667 103.151 4.98438 103.391 6.23438C103.641 7.47396 103.979 8.78125 104.406 10.1562C104.844 11.5208 105.339 12.849 105.891 14.1406C106.453 15.4219 107.052 16.5417 107.688 17.5H107.781C108.479 16.5417 109.109 15.4271 109.672 14.1562C110.245 12.875 110.734 11.5521 111.141 10.1875C111.557 8.82292 111.875 7.52083 112.094 6.28125C112.323 5.03125 112.438 3.95312 112.438 3.04688V3.09375C112.438 2.79167 112.49 2.5625 112.594 2.40625C113.094 1.71875 113.781 0.994792 114.656 0.234375C114.823 0.109375 114.969 0.046875 115.094 0.046875C115.208 0.046875 115.344 0.109375 115.5 0.234375C115.969 0.630208 116.37 1.01042 116.703 1.375C117.036 1.72917 117.323 2.07292 117.562 2.40625C117.667 2.57292 117.719 2.79688 117.719 3.07812C117.719 4.02604 117.583 5.125 117.312 6.375C117.052 7.61458 116.693 8.92708 116.234 10.3125C115.776 11.6979 115.255 13.0833 114.672 14.4688C114.089 15.8542 113.474 17.1771 112.828 18.4375C112.182 19.6875 111.536 20.7969 110.891 21.7656C110.349 22.5885 109.609 23 108.672 23H106.516C105.578 23 104.849 22.5885 104.328 21.7656ZM97.5938 3.03125V3.04688V3.09375V3.03125ZM117.719 3.04688V3.09375V3.07812V3.04688ZM125.016 23C123.943 23 123.125 22.8646 122.562 22.5938C122.01 22.3229 121.635 21.8802 121.438 21.2656C121.25 20.651 121.156 19.8333 121.156 18.8125V4.78125C121.156 3.73958 121.25 2.91667 121.438 2.3125C121.635 1.69792 122.01 1.26042 122.562 1C123.125 0.729167 123.943 0.59375 125.016 0.59375H132.359C132.609 0.59375 132.797 0.635417 132.922 0.71875C133.193 0.90625 133.474 1.13021 133.766 1.39062C134.057 1.65104 134.365 1.96354 134.688 2.32812C134.792 2.46354 134.844 2.57292 134.844 2.65625C134.844 2.75 134.792 2.85417 134.688 2.96875C134.365 3.33333 134.057 3.64583 133.766 3.90625C133.474 4.16667 133.193 4.39062 132.922 4.57812C132.776 4.66146 132.589 4.70312 132.359 4.70312H127.984C127.297 4.70312 126.828 4.84896 126.578 5.14062C126.328 5.43229 126.203 5.93229 126.203 6.64062V9.67188H131.812C132.062 9.67188 132.25 9.71354 132.375 9.79688C132.646 9.98438 132.927 10.2083 133.219 10.4688C133.51 10.7292 133.818 11.0417 134.141 11.4062C134.245 11.5417 134.297 11.651 134.297 11.7344C134.297 11.8281 134.245 11.9323 134.141 12.0469C133.818 12.4115 133.51 12.724 133.219 12.9844C132.927 13.2448 132.646 13.4688 132.375 13.6562C132.229 13.7396 132.042 13.7812 131.812 13.7812H126.203V16.9375C126.203 17.6354 126.328 18.1354 126.578 18.4375C126.828 18.7396 127.297 18.8906 127.984 18.8906H132.875C133.125 18.8906 133.312 18.9323 133.438 19.0156C133.708 19.2031 133.99 19.4271 134.281 19.6875C134.573 19.9479 134.88 20.2604 135.203 20.625C135.307 20.7604 135.359 20.8698 135.359 20.9531C135.359 21.0469 135.307 21.151 135.203 21.2656C134.88 21.6302 134.573 21.9427 134.281 22.2031C133.99 22.4635 133.708 22.6875 133.438 22.875C133.292 22.9583 133.104 23 132.875 23H125.016ZM144.719 23.375C143.396 23.375 142.297 23.2552 141.422 23.0156C140.557 22.776 139.859 22.4792 139.328 22.125C138.807 21.7604 138.406 21.401 138.125 21.0469C138.031 20.9115 137.948 20.7812 137.875 20.6562C137.802 20.5312 137.75 20.3906 137.719 20.2344C137.677 20.026 137.635 19.7552 137.594 19.4219C137.552 19.0781 137.547 18.6823 137.578 18.2344C137.589 18.0469 137.625 17.9167 137.688 17.8438C137.76 17.7604 137.88 17.6979 138.047 17.6562C138.349 17.5833 138.74 17.5208 139.219 17.4688C139.708 17.4062 140.057 17.375 140.266 17.375C140.484 17.375 140.661 17.4167 140.797 17.5C140.932 17.5833 141.094 17.724 141.281 17.9219C141.49 18.1406 141.849 18.4219 142.359 18.7656C142.87 19.099 143.656 19.2656 144.719 19.2656C145.74 19.2656 146.51 19.0521 147.031 18.625C147.552 18.1979 147.812 17.6042 147.812 16.8438C147.812 16.4375 147.688 16.0573 147.438 15.7031C147.198 15.3385 146.755 14.9792 146.109 14.625C145.464 14.2604 144.542 13.8802 143.344 13.4844C141.365 12.8177 139.938 11.9896 139.062 11C138.188 10.0104 137.75 8.63542 137.75 6.875C137.75 5.41667 138.104 4.19792 138.812 3.21875C139.521 2.23958 140.5 1.5 141.75 1C143 0.5 144.443 0.25 146.078 0.25C147.339 0.25 148.38 0.401042 149.203 0.703125C150.036 0.994792 150.682 1.32812 151.141 1.70312C151.599 2.06771 151.896 2.36458 152.031 2.59375C152.115 2.72917 152.167 2.83333 152.188 2.90625C152.219 2.96875 152.24 3.05729 152.25 3.17188C152.281 3.49479 152.292 3.85417 152.281 4.25C152.271 4.64583 152.234 5.09375 152.172 5.59375C152.141 5.76042 152.083 5.875 152 5.9375C151.927 5.98958 151.812 6.01562 151.656 6.01562C150.646 6.03646 149.865 5.98438 149.312 5.85938C149.094 5.80729 148.948 5.75521 148.875 5.70312C148.802 5.65104 148.708 5.56771 148.594 5.45312C148.427 5.25521 148.161 5.02604 147.797 4.76562C147.443 4.49479 146.87 4.35938 146.078 4.35938C144.984 4.35938 144.208 4.60938 143.75 5.10938C143.292 5.59896 143.062 6.15104 143.062 6.76562C143.062 7.49479 143.401 8.06771 144.078 8.48438C144.755 8.89062 145.823 9.35417 147.281 9.875C148.5 10.3021 149.547 10.7656 150.422 11.2656C151.297 11.7656 151.964 12.4062 152.422 13.1875C152.891 13.9688 153.125 15 153.125 16.2812C153.125 17.875 152.755 19.1979 152.016 20.25C151.286 21.3021 150.286 22.0885 149.016 22.6094C147.755 23.1198 146.323 23.375 144.719 23.375ZM166.562 22.1719C166.562 22.4844 166.495 22.7031 166.359 22.8281C166.234 22.9427 166.016 23 165.703 23H162.375C162.062 23 161.839 22.9427 161.703 22.8281C161.578 22.7031 161.516 22.4844 161.516 22.1719V4.70312H156.859C156.609 4.70312 156.422 4.66146 156.297 4.57812C156.026 4.39062 155.745 4.16667 155.453 3.90625C155.172 3.64583 154.865 3.33333 154.531 2.96875C154.427 2.83333 154.375 2.72396 154.375 2.64062C154.375 2.54688 154.427 2.44271 154.531 2.32812C154.865 1.96354 155.172 1.65104 155.453 1.39062C155.745 1.13021 156.026 0.90625 156.297 0.71875C156.443 0.635417 156.63 0.59375 156.859 0.59375H171.234C171.484 0.59375 171.672 0.635417 171.797 0.71875C172.068 0.90625 172.349 1.13021 172.641 1.39062C172.932 1.65104 173.24 1.96354 173.562 2.32812C173.667 2.46354 173.719 2.57292 173.719 2.65625C173.719 2.75 173.667 2.85417 173.562 2.96875C173.24 3.33333 172.932 3.64583 172.641 3.90625C172.349 4.16667 172.068 4.39062 171.797 4.57812C171.651 4.66146 171.464 4.70312 171.234 4.70312H166.562V22.1719Z" fill="black"/>
</svg>
